# xmcd
#
# Track frame offsets:
#	150
#	14292
#	28107
#	42148
#	54084
#	66351
#	77897
#	91261
#	102951
#	117125
#	130303
#	142886
#	154613
#	168004
#	180805
#	194188
#	208442
#	221196
#	235198
#	247400
#	259774
#	272383
#	284863
#	297713
#	309736
#	326408
#
# Disc length: 4500 seconds
# Revision: 2
# Processed by: cddbd v1.5.2PL0 Copyright (c) Steve Scherf et al.
# Submitted via: dBpowerAMP V12.0
#
DISCID=8a11921a
DTITLE=Jimmy Witherspoon - Gone With The Blues
DYEAR=1945
DGENRE=Blues
TTITLE0=Confessin' the Blues
TTITLE1=Shipyard Woman Blues
TTITLE2=Roll On, Katy
TTITLE3=Voodoo Woman Blues
TTITLE4=Gone with the Blues
TTITLE5=Bar Fly Blues
TTITLE6=Please Stop Playing Those Blues, Boy
TTITLE7=All My Geets are Gone
TTITLE8=Strange Woman Blues
TTITLE9=Wanderin'  Gal Blues
TTITLE10=Hey Mr. Landlord
TTITLE11=Third Floor Blues
TTITLE12=Money's Getting Cheaper
TTITLE13=Skid Row Blues
TTITLE14=Ain't Nobody's Business (Part 1)
TTITLE15=Ain't Nobody's Business (Part 2)
TTITLE16=Frogimore Blues
TTITLE17=Early Morning Blues (Wee Baby Blues)
TTITLE18=Six-Foot-Two Blues
TTITLE19=Spoon Calls Hootie
TTITLE20=Your Red Wagon
TTITLE21=Take Me Back Baby
TTITLE22=Jump Children
TTITLE23=Who's been Jivin' You
TTITLE24=No Rollin' Blues
TTITLE25=Big Fine Girl
EXTD=
EXTT0=
EXTT1=
EXTT2=
EXTT3=
EXTT4=
EXTT5=
EXTT6=
EXTT7=
EXTT8=
EXTT9=
EXTT10=
EXTT11=
EXTT12=
EXTT13=
EXTT14=
EXTT15=
EXTT16=
EXTT17=
EXTT18=
EXTT19=
EXTT20=
EXTT21=
EXTT22=
EXTT23=
EXTT24=
EXTT25=
PLAYORDER=
